<svg aria-hidden="true" style="position: absolute; width: 0; height: 0; overflow: hidden;" version="1.1" xmlns="http://www.w3.org/2000/svg" xmlns:xlink="http://www.w3.org/1999/xlink">
<defs>
<symbol id="icon-home"  >
<path  d="M220 876h150V626h220v250h150V486L480 291 220 486v390Zm-60 60V456l320-240 320 240v480H530V686H430v250H160Zm320-353Z"/>
</symbol>
<symbol id="icon-calendar" >
<path d="M596.817 836Q556 836 528 807.817q-28-28.183-28-69T528.183 670q28.183-28 69-28T666 670.183q28 28.183 28 69T665.817 808q-28.183 28-69 28ZM180 976q-24 0-42-18t-18-42V296q0-24 18-42t42-18h65v-60h65v60h340v-60h65v60h65q24 0 42 18t18 42v620q0 24-18 42t-42 18H180Zm0-60h600V486H180v430Zm0-490h600V296H180v130Zm0 0V296v130Z"/>
</symbol>
<symbol id="icon-exercise" >
<path d="m826 471-42-42 45-45-157-157-45 45-43-43 30-31q23-23 57-22.5t57 23.5l129 129q23 23 23 56.5T857 441l-31 30ZM346 952q-23 23-56.5 23T233 952L90 809q-17-17.378-17-42.689T90 724l44-44 43 42-45 45 157 157 45-45 42 43-30 30Zm397-308 85-85-331-331-85 85 331 331ZM463 924l86-86-331-331-86 86 331 331Zm9-248 109-109-92-92-109 109 92 92Zm33 290q-16.934 17-41.967 17Q438 983 421 966L90 635q-17-16.934-17-41.967Q73 568 90 551l85-86q17.378-17 42.689-17T260 465l77 77 110-110-77-77q-17-16.934-17-41.967Q353 288 370 271l85-86q17.378-17 42.689-17T540 185l331 331q17 17.378 17 42.689T871 601l-86 85q-16.934 17-41.967 17Q718 703 701 686l-77-77-110 110 77 77q17 17.378 17 42.689T591 881l-86 85Z"/>
</symbol>
<symbol id="icon-posts" >
<path d="M180 936q-24 0-42-18t-18-42V276q0-24 18-42t42-18h462l198 198v462q0 24-18 42t-42 18H180Zm0-60h600V447.429H609V276H180v600Zm99-111h402v-60H279v60Zm0-318h201v-60H279v60Zm0 159h402v-60H279v60Zm-99-330v171.429V276v600-600Z"/>
</symbol>
<symbol id="icon-edit" >
<path d="M180 876h44l443-443-44-44-443 443v44Zm614-486L666 262l42-42q17-17 42-17t42 17l44 44q17 17 17 42t-17 42l-42 42Zm-42 42L248 936H120V808l504-504 128 128Zm-107-21-22-22 44 44-22-22Z"/>
</symbol>
<symbol id="icon-settings" >
<path d="m388 976-20-126q-19-7-40-19t-37-25l-118 54-93-164 108-79q-2-9-2.5-20.5T185 576q0-9 .5-20.5T188 535L80 456l93-164 118 54q16-13 37-25t40-18l20-127h184l20 126q19 7 40.5 18.5T669 346l118-54 93 164-108 77q2 10 2.5 21.5t.5 21.5q0 10-.5 21t-2.5 21l108 78-93 164-118-54q-16 13-36.5 25.5T592 850l-20 126H388Zm92-270q54 0 92-38t38-92q0-54-38-92t-92-38q-54 0-92 38t-38 92q0 54 38 92t92 38Zm0-60q-29 0-49.5-20.5T410 576q0-29 20.5-49.5T480 506q29 0 49.5 20.5T550 576q0 29-20.5 49.5T480 646Zm0-70Zm-44 340h88l14-112q33-8 62.5-25t53.5-41l106 46 40-72-94-69q4-17 6.5-33.5T715 576q0-17-2-33.5t-7-33.5l94-69-40-72-106 46q-23-26-52-43.5T538 348l-14-112h-88l-14 112q-34 7-63.5 24T306 414l-106-46-40 72 94 69q-4 17-6.5 33.5T245 576q0 17 2.5 33.5T254 643l-94 69 40 72 106-46q24 24 53.5 41t62.5 25l14 112Z"/>
</symbol>
</defs>
</svg>
